<svg width="129" height="44" viewBox="0 0 129 44" fill="none" xmlns="http://www.w3.org/2000/svg">
<rect width="129" height="44" rx="22" fill="black"/>
<path d="M55.4274 12.2722L54.4815 15.0786H56.3733L55.4274 12.2722ZM57.1797 17.4411L56.7486 16.1652H54.1062L53.6751 17.4411H52.4563L54.7885 10.7882H56.1097L58.4419 17.4411H57.1766H57.1797ZM60.1787 10.6578H58.9226V11.8686H60.1787V10.6578ZM60.1477 18.1179V12.5609H58.9692V17.8913C58.9692 18.2204 58.7738 18.416 58.4078 18.416C58.2279 18.416 58.1845 18.3973 57.8372 18.3601V19.3535C58.0512 19.4094 58.2186 19.4373 58.3706 19.456C58.5195 19.4746 58.6528 19.4746 58.7831 19.4746C59.6546 19.4746 60.1477 18.9499 60.1477 18.1148M65.3114 17.438V12.5578H64.1422V15.1376C64.1422 15.5319 64.0678 15.9727 63.7856 16.2335C63.646 16.3763 63.4568 16.4787 63.1839 16.4787C62.5636 16.4787 62.3403 16.1217 62.3403 15.5505V12.5578H61.1711V15.8144C61.1711 16.8544 61.8162 17.5591 62.8552 17.5591C63.4754 17.5591 64.0182 17.2766 64.2539 16.7985L64.3376 17.4349H65.3114V17.438ZM69.3773 17.438V14.4453C69.3773 13.8741 69.1912 13.5264 68.571 13.5264C68.1585 13.5264 67.8887 13.7872 67.7274 14.1442C67.5599 14.5291 67.5661 15.0352 67.5661 15.4481V17.438H66.3969V12.5578H67.38L67.4638 13.1849C67.7553 12.6695 68.3353 12.4367 68.8966 12.4367C69.9356 12.4367 70.5434 13.1663 70.5434 14.1814V17.438H69.3742H69.3773ZM74.3147 17.3728V16.3887C73.9952 16.426 73.7998 16.4353 73.5548 16.4353C73.1796 16.4353 73.0121 16.277 73.0121 15.8982V13.5233H74.2402V12.5578H73.0121V11.0273L71.8429 11.3191V12.5578H70.9528V13.5233H71.8429V16.0007C71.8429 16.9382 72.3298 17.5001 73.3129 17.5001C73.6603 17.5001 73.989 17.4536 74.3147 17.3697M77.6145 15.268L76.3771 15.3611C76.0204 15.3891 75.6762 15.6064 75.6762 16.0007C75.6762 16.3949 76.0049 16.6122 76.3709 16.6122C77.1028 16.6122 77.6176 16.218 77.6176 15.4946V15.2711L77.6145 15.268ZM78.5976 17.5094C78.0921 17.5094 77.8099 17.1897 77.7727 16.8265C77.5463 17.2176 76.9849 17.556 76.2933 17.556C75.1303 17.556 74.5318 16.8265 74.5318 16.0286C74.5318 15.0972 75.2544 14.5633 76.1817 14.4981L77.6145 14.3956V14.0976C77.6145 13.6381 77.4533 13.3246 76.7896 13.3246C76.2437 13.3246 75.9274 13.5698 75.8995 14.02H74.7644C74.8326 12.921 75.701 12.4336 76.7896 12.4336C77.6238 12.4336 78.334 12.6975 78.6163 13.427C78.7372 13.7375 78.7589 14.0852 78.7589 14.4143V16.2242C78.7589 16.4508 78.8334 16.5346 79.0287 16.5346C79.1032 16.5346 79.1776 16.516 79.1776 16.516V17.3791C78.9791 17.4629 78.8768 17.5094 78.5976 17.5094ZM86.7294 17.4349V14.1411C86.7294 13.1259 86.1867 12.4336 85.1477 12.4336C84.4933 12.4336 83.9661 12.7223 83.6746 13.2314C83.4327 12.7347 82.9644 12.4336 82.279 12.4336C81.6339 12.4336 81.1656 12.7534 80.8927 13.2004L80.7965 12.5547H79.8227V17.4349H80.9826V14.7713C80.9826 14.1597 81.2834 13.4581 81.9471 13.4581C82.5395 13.4581 82.6976 13.8058 82.6976 14.4049V17.4349H83.8576V14.7713C83.8576 14.1597 84.146 13.4581 84.8159 13.4581C85.4051 13.4581 85.5664 13.8058 85.5664 14.4049V17.4349H86.7263H86.7294ZM90.3952 13.6537C90.234 13.4829 89.992 13.3711 89.654 13.3711C89.2973 13.3711 89.0058 13.5233 88.8383 13.7468C88.6709 13.961 88.5933 14.1876 88.584 14.5074H90.6929C90.6867 14.1411 90.5813 13.8586 90.3952 13.6506M91.856 15.358H88.5964C88.5871 15.7337 88.7174 16.0907 88.9531 16.3173C89.1206 16.4756 89.3563 16.6184 89.6757 16.6184C90.0138 16.6184 90.2215 16.5533 90.3859 16.3825C90.4883 16.2801 90.5751 16.1466 90.6216 15.9696H91.7443C91.7164 16.2614 91.5179 16.6464 91.3318 16.8699C90.9193 17.3573 90.3084 17.5529 89.6912 17.5529C89.0244 17.5529 88.5375 17.317 88.1529 16.9537C87.666 16.485 87.4024 15.7989 87.4024 15.001C87.4024 14.2032 87.635 13.5264 88.1064 13.0483C88.4724 12.6726 88.9965 12.4305 89.6602 12.4305C90.3797 12.4305 91.0372 12.7192 91.4404 13.3277C91.797 13.8648 91.8808 14.4174 91.8622 15.0289C91.8622 15.0289 91.8529 15.2525 91.8529 15.3549M96.7344 17.4287V14.1721C96.7344 13.16 96.1265 12.4274 95.0845 12.4274C94.5231 12.4274 93.9401 12.6602 93.6516 13.1756L93.5679 12.5485H92.5848V17.4287H93.754V15.4387C93.754 15.0258 93.7447 14.5198 93.9122 14.1349C94.0703 13.7778 94.3433 13.5171 94.7557 13.5171C95.376 13.5171 95.5621 13.8648 95.5621 14.436V17.4287H96.7313H96.7344ZM100.499 17.3635V16.3794C100.183 16.4167 99.9846 16.426 99.7396 16.426C99.3675 16.426 99.1969 16.2676 99.1969 15.8889V13.514H100.425V12.5485H99.1969V11.0179L98.0277 11.3098V12.5485H97.1376V13.514H98.0277V15.9913C98.0277 16.9289 98.5146 17.4908 99.4977 17.4908C99.8451 17.4908 100.174 17.4442 100.499 17.3604M106.349 14.9762C106.349 15.6809 106.159 16.5533 105.241 16.5533C104.879 16.5533 104.624 16.3856 104.454 16.1683C104.209 15.8516 104.144 15.3984 104.144 14.9762C104.144 14.554 104.209 14.1131 104.454 13.7934C104.621 13.576 104.875 13.4084 105.241 13.4084C106.159 13.4084 106.349 14.2715 106.349 14.9762ZM107.462 17.4256V10.6516H106.29V12.8837C106.085 12.6323 105.632 12.4243 105.015 12.4243C104.519 12.4243 104.125 12.5733 103.824 12.8185C103.244 13.2966 102.953 14.0386 102.953 14.9948C102.953 15.951 103.235 16.6464 103.815 17.1245C104.113 17.3666 104.516 17.5374 105.003 17.5374C105.539 17.5374 106.082 17.3418 106.373 16.8916L106.448 17.4256H107.459H107.462ZM111.106 13.6443C110.948 13.4736 110.703 13.3618 110.365 13.3618C110.008 13.3618 109.717 13.514 109.549 13.7375C109.382 13.9517 109.307 14.1783 109.295 14.4981H111.404C111.395 14.1317 111.292 13.8492 111.106 13.6412M112.567 15.3487H109.307C109.298 15.7244 109.428 16.0814 109.664 16.308C109.831 16.4663 110.067 16.6091 110.387 16.6091C110.725 16.6091 110.929 16.5439 111.1 16.3732C111.202 16.2707 111.289 16.1373 111.336 15.9603H112.458C112.43 16.2521 112.235 16.6371 112.046 16.8606C111.633 17.348 111.022 17.5436 110.405 17.5436C109.741 17.5436 109.255 17.3076 108.867 16.9444C108.38 16.4756 108.119 15.7896 108.119 14.9917C108.119 14.1938 108.352 13.5171 108.82 13.039C109.186 12.6633 109.71 12.4212 110.377 12.4212C111.1 12.4212 111.754 12.7099 112.157 13.3184C112.514 13.8554 112.598 14.4081 112.579 15.0196C112.579 15.0196 112.567 15.2432 112.567 15.3456M58.0201 27.5556C58.0201 28.4962 57.1704 28.785 56.3857 28.785H54.3078V26.2082H56.4384C57.3285 26.2082 58.0201 26.5621 58.0201 27.5556ZM57.8217 23.647C57.8217 24.5225 57.1828 24.7988 56.426 24.7988H54.3078V22.4704H56.3857C57.1456 22.4704 57.8217 22.7591 57.8217 23.647ZM59.5305 23.5415C59.5305 22.7436 59.1397 21.9737 58.4605 21.5298C57.8341 21.1262 57.0649 21.0206 56.3206 21.0206H52.6362V30.3031H56.3206C57.2107 30.3031 58.0698 30.2254 58.7893 29.676C59.4561 29.1668 59.729 28.4217 59.729 27.5959C59.729 26.7701 59.2731 25.9071 58.3985 25.5035C59.18 25.1527 59.5336 24.3021 59.5336 23.5415M64.9827 27.2669L63.2583 27.3973C62.7621 27.4376 62.2783 27.7388 62.2783 28.2882C62.2783 28.8377 62.7342 29.1389 63.2459 29.1389C64.2663 29.1389 64.9858 28.5894 64.9858 27.5804V27.2669H64.9827ZM66.3535 30.39C65.6495 30.39 65.2587 29.946 65.206 29.4369C64.8927 29.9864 64.1081 30.4552 63.1405 30.4552C61.5216 30.4552 60.6873 29.4369 60.6873 28.3255C60.6873 27.0309 61.6921 26.2858 62.9854 26.1958L64.9858 26.053V25.6339C64.9858 24.9913 64.7625 24.5597 63.8352 24.5597C63.0754 24.5597 62.6319 24.9012 62.5915 25.5284H61.0129C61.1029 23.9978 62.3186 23.318 63.8321 23.318C64.9951 23.318 65.9875 23.6843 66.3783 24.7026C66.5458 25.1341 66.5737 25.6184 66.5737 26.0778V28.5987C66.5737 28.9123 66.6791 29.0302 66.9521 29.0302C67.0575 29.0302 67.1629 29.0054 67.1629 29.0054V30.2068C66.89 30.3248 66.7443 30.39 66.3535 30.39ZM72.5438 25.0037V23.4359C72.3732 23.408 72.2058 23.3987 72.0352 23.3987C71.2381 23.3987 70.4287 23.7246 70.1154 24.5101L69.9728 23.4918H68.5865V30.2906H70.2333V26.8664C70.2333 25.7674 70.835 24.9447 71.9825 24.9447C72.1654 24.9447 72.3608 24.9695 72.5438 25.0099M78.9977 27.8878H77.3912C77.3788 28.1361 77.2982 28.3472 77.1958 28.5149C77.0005 28.816 76.6469 29.024 76.1507 29.024C75.7072 29.024 75.3784 28.8284 75.1582 28.5925C74.7644 28.161 74.7023 27.5183 74.7023 26.8788C74.7023 26.2393 74.7675 25.5842 75.1582 25.1527C75.3784 24.9168 75.7072 24.7336 76.1507 24.7336C76.6469 24.7336 77.0005 24.9416 77.1958 25.2427C77.2982 25.4135 77.3788 25.6215 77.3912 25.8698H78.9977C78.9698 25.3328 78.7899 24.7988 78.4736 24.3921C78.0053 23.8054 77.1803 23.3211 76.1507 23.3211C75.121 23.3211 74.2557 23.8178 73.7874 24.3921C73.2788 25.0316 73.0431 25.8823 73.0431 26.8757C73.0431 27.8691 73.2788 28.7198 73.7874 29.3593C74.2589 29.9336 75.1179 30.4303 76.1507 30.4303C77.1834 30.4303 78.0053 29.946 78.4736 29.3593C78.7868 28.9557 78.9698 28.4186 78.9977 27.8816M84.5616 26.2082H81.6215C81.6339 25.7643 81.7393 25.4476 81.975 25.1465C82.2107 24.8329 82.617 24.6218 83.1132 24.6218C83.5815 24.6218 83.9196 24.7802 84.146 25.013C84.4065 25.3017 84.5492 25.6929 84.5616 26.2051M86.196 26.9347C86.2208 26.0872 86.106 25.3141 85.6067 24.5691C85.0454 23.7184 84.1305 23.3148 83.1256 23.3148C82.1983 23.3148 81.4664 23.6532 80.9578 24.1748C80.3065 24.8423 79.9778 25.8109 79.9778 26.8943C79.9778 27.9778 80.3437 28.9619 81.0229 29.6139C81.5563 30.123 82.2355 30.449 83.166 30.449C84.0281 30.449 84.8748 30.1727 85.4517 29.4959C85.7122 29.1823 85.9882 28.6453 86.0254 28.2417H84.4561C84.391 28.49 84.2731 28.6732 84.1305 28.816C83.8948 29.052 83.6063 29.142 83.138 29.142C82.6945 29.142 82.3689 28.9464 82.1332 28.7229C81.8076 28.4093 81.6215 27.9126 81.637 27.3879H86.1836C86.1836 27.2451 86.196 26.9316 86.196 26.9316M90.2588 30.2658V28.8967C90.1657 28.8967 90.1285 28.9091 89.9827 28.9091C89.4214 28.9091 89.3284 28.6484 89.3284 28.2541V20.8281H87.6846V28.5304C87.6846 29.825 88.429 30.3589 89.5392 30.3589C89.8649 30.3589 89.93 30.3341 90.2588 30.2689M95.8226 26.885C95.8226 27.5245 95.7327 28.1672 95.3388 28.5987C95.1155 28.8346 94.7495 29.0302 94.306 29.0302C93.8625 29.0302 93.4966 28.8346 93.2733 28.5987C92.8825 28.1672 92.7895 27.5276 92.7895 26.885C92.7895 26.2424 92.8825 25.6029 93.2733 25.1713C93.4966 24.9354 93.8625 24.7398 94.306 24.7398C94.7495 24.7398 95.1155 24.9354 95.3388 25.1713C95.7296 25.6029 95.8226 26.2424 95.8226 26.885ZM97.4787 26.885C97.4787 25.7332 97.1934 25.013 96.6848 24.3735C96.2165 23.7991 95.3419 23.3148 94.306 23.3148C93.2702 23.3148 92.3987 23.796 91.9304 24.3735C91.4218 25.013 91.1333 25.7332 91.1333 26.885C91.1333 28.0368 91.4187 28.7539 91.9304 29.3966C92.3987 29.9709 93.2733 30.4552 94.306 30.4552C95.3388 30.4552 96.2134 29.9709 96.6848 29.3966C97.1934 28.757 97.4787 28.0368 97.4787 26.885ZM103.204 30.2844V26.112C103.204 25.3141 102.943 24.8298 102.081 24.8298C101.504 24.8298 101.129 25.1962 100.903 25.6929C100.667 26.23 100.682 26.9347 100.682 27.509V30.2813H99.0511V23.4825H100.422L100.54 24.358C100.946 23.6377 101.755 23.3148 102.54 23.3148C103.988 23.3148 104.835 24.3331 104.835 25.7426V30.2813H103.207L103.204 30.2844ZM110.504 27.5773C110.504 28.5832 109.785 29.1358 108.768 29.1358C108.259 29.1358 107.8 28.8098 107.8 28.2851C107.8 27.7356 108.284 27.4345 108.78 27.3942L110.504 27.2638V27.5773ZM112.685 30.2037V29.0023C112.685 29.0023 112.579 29.0271 112.477 29.0271C112.201 29.0271 112.099 28.9091 112.099 28.5956V26.0747C112.099 25.6153 112.071 25.131 111.9 24.6994C111.509 23.6812 110.517 23.3148 109.354 23.3148C107.837 23.3148 106.625 23.9916 106.532 25.5252H108.11C108.15 24.8981 108.594 24.5566 109.351 24.5566C110.278 24.5566 110.501 24.9882 110.501 25.6308V26.0499L108.501 26.1927C107.208 26.2827 106.203 27.0278 106.203 28.3224C106.203 29.4338 107.037 30.4521 108.659 30.4521C109.627 30.4521 110.411 29.9802 110.722 29.4338C110.774 29.9429 111.165 30.3869 111.872 30.3869C112.263 30.3869 112.406 30.3217 112.682 30.2037" fill="white"/>
<rect width="44" height="44" rx="22" fill="#C8102E"/>
<path d="M18.2109 21.1137V24.0226H11.3096L14.2247 21.1137H18.2109ZM25.5655 24.3579V27.2699H29.5547L32.4636 24.3579H25.5655ZM18.214 19.9464V17.1151L15.392 19.9464H18.214ZM25.5655 31.2561V28.4341H28.3843L25.5655 31.2561ZM21.5948 9.03101C21.5948 8.84474 21.7097 8.68021 21.899 8.56534C22.0853 8.68331 22.2064 8.84474 22.2064 9.03101C22.2064 9.21728 22.0853 9.37561 21.899 9.49669C21.7128 9.37561 21.5948 9.21418 21.5948 9.03101ZM22.1505 9.9903C21.9922 9.90027 21.9053 9.7109 21.8959 9.49669C22.0884 9.39113 22.2871 9.37251 22.4516 9.46875C22.6131 9.56188 22.6969 9.74194 22.7062 9.96547C22.5106 10.0648 22.3088 10.0896 22.1505 9.99341M21.6445 9.99341C21.8059 9.90338 21.8928 9.714 21.899 9.49979C21.7035 9.39424 21.5017 9.37561 21.3464 9.47185C21.185 9.56499 21.1012 9.74505 21.0919 9.96857C21.2844 10.0679 21.4862 10.0928 21.6445 9.99651M23.7307 9.19866C23.7711 9.01549 23.917 8.87889 24.1281 8.80439C24.2802 8.95651 24.3547 9.14588 24.3206 9.32284C24.2802 9.49979 24.1343 9.63949 23.9294 9.714C23.7711 9.56499 23.6872 9.37872 23.7307 9.19555M24.0722 10.2542C23.9356 10.1269 23.8921 9.93132 23.9294 9.714C24.1405 9.65191 24.3423 9.67675 24.4789 9.80093C24.6124 9.92821 24.6621 10.1238 24.6186 10.338C24.4106 10.4001 24.2088 10.3722 24.0722 10.2542ZM23.5755 10.1455C23.7555 10.0896 23.8766 9.93132 23.9294 9.714C23.7617 9.5743 23.5662 9.51531 23.3954 9.56499C23.2123 9.62708 23.0943 9.78541 23.0415 10.0027C23.2123 10.1393 23.4047 10.2045 23.5786 10.1455M25.7952 9.78541C25.8759 9.61776 26.0498 9.51531 26.2609 9.48737C26.3881 9.66743 26.4285 9.86923 26.354 10.0369C26.2764 10.2045 26.1025 10.3101 25.8852 10.338C25.761 10.1579 25.7176 9.95926 25.7952 9.78541ZM25.4537 10.6888C25.64 10.6702 25.7921 10.5367 25.8883 10.338C25.7548 10.1642 25.5748 10.0617 25.3885 10.0834C25.2053 10.1052 25.0563 10.2387 24.9632 10.4342C25.0967 10.6112 25.2767 10.7012 25.4537 10.6919M20.027 9.19866C19.9929 9.01549 19.847 8.87889 19.639 8.80439C19.4775 8.95651 19.3999 9.14588 19.4372 9.32284C19.4775 9.49979 19.6235 9.63949 19.8315 9.714C19.9898 9.56499 20.0674 9.37872 20.027 9.19555M19.6855 10.2542C19.8221 10.1269 19.8687 9.93132 19.8284 9.714C19.6203 9.65191 19.4155 9.67675 19.282 9.80093C19.1423 9.92821 19.0988 10.1238 19.1392 10.338C19.3472 10.4001 19.5489 10.3722 19.6855 10.2542ZM20.1823 10.1455C20.0022 10.0896 19.8842 9.93132 19.8284 9.714C19.996 9.5743 20.1947 9.51531 20.3654 9.56499C20.5393 9.62708 20.6635 9.78541 20.7131 10.0027C20.5455 10.1393 20.3561 10.2045 20.1792 10.1455M17.9594 9.78541C17.888 9.61776 17.7111 9.51531 17.4907 9.48737C17.3696 9.66743 17.3292 9.86923 17.4068 10.0369C17.4814 10.2045 17.6521 10.3101 17.8694 10.338C17.9936 10.1579 18.034 9.95926 17.9594 9.78541ZM18.304 10.6888C18.1178 10.6702 17.9657 10.5367 17.8694 10.338C18.0029 10.1642 18.1799 10.0617 18.3661 10.0834C18.5524 10.1052 18.7076 10.2387 18.8039 10.4342C18.6673 10.6112 18.4903 10.7012 18.3071 10.6919M21.3992 5.10383C21.3992 4.82753 21.6196 4.604 21.8959 4.604C22.1722 4.604 22.3927 4.82753 22.3927 5.10383C22.3927 5.38013 22.1691 5.59744 21.8959 5.59744C21.6227 5.59744 21.3992 5.37702 21.3992 5.10383ZM18.3009 11.2942L18.7107 11.9089C19.6359 11.4805 20.7411 11.1948 21.8866 11.1948C23.0322 11.1948 24.1436 11.4805 25.0718 11.9089L25.4816 11.2942C24.4354 10.7913 23.2091 10.4932 21.899 10.4932C20.589 10.4932 19.3565 10.7819 18.3009 11.2942ZM18.9591 7.41978C18.8163 7.37632 18.6704 7.35459 18.5214 7.35459C17.8632 7.35459 17.3417 7.75507 17.3417 8.23626C17.3417 8.466 17.4596 8.6771 17.649 8.83543L17.1305 9.35078C16.8046 9.05895 16.609 8.66779 16.609 8.23626C16.609 7.33906 17.4627 6.61882 18.5245 6.61882C18.7946 6.61882 19.0584 6.66539 19.2975 6.75852C19.6421 6.35804 20.2071 6.10037 20.8373 6.10037C21.2254 6.10037 21.5917 6.19661 21.8928 6.36736C22.2002 6.19661 22.5665 6.10037 22.9515 6.10037C23.5848 6.10037 24.1467 6.35804 24.4913 6.75852C24.7303 6.66539 24.9942 6.61882 25.2705 6.61882C26.3261 6.61882 27.1829 7.34217 27.1829 8.23626C27.1829 8.66779 26.978 9.05895 26.6582 9.35078L26.1429 8.83543C26.3292 8.6771 26.4471 8.46289 26.4471 8.23626C26.4471 7.75507 25.9194 7.35459 25.2705 7.35459C25.1153 7.35459 24.9725 7.37942 24.8297 7.41978C24.8514 7.51912 24.8607 7.61847 24.8607 7.72092C24.8607 8.04068 24.7552 8.34182 24.5627 8.59638L24.0349 8.06552C24.1001 7.95686 24.125 7.84199 24.125 7.72092C24.125 7.23041 23.6003 6.83614 22.9515 6.83614C22.7031 6.83614 22.4672 6.89823 22.2778 6.99757V8.05931H21.542V7.0162C21.3496 6.90133 21.1043 6.83614 20.8373 6.83614C20.1916 6.83614 19.6638 7.2273 19.6638 7.72092C19.6638 7.84199 19.698 7.95686 19.7538 8.06552L19.2261 8.59638C19.0336 8.34182 18.9312 8.04068 18.9312 7.72092C18.9312 7.61847 18.9405 7.51912 18.9653 7.41978M21.4241 36.9622C21.4241 36.7014 21.6383 36.4903 21.899 36.4903C22.1598 36.4903 22.374 36.7014 22.374 36.9622C22.374 37.2229 22.1629 37.4371 21.899 37.4371C21.6352 37.4371 21.4241 37.2291 21.4241 36.9622ZM8.65527 24.2027C8.65527 23.9357 8.87259 23.7277 9.13337 23.7277C9.39414 23.7277 9.61146 23.9357 9.61146 24.2027C9.61146 24.4697 9.39725 24.6808 9.13337 24.6808C8.86948 24.6808 8.65527 24.4635 8.65527 24.2027ZM34.1835 24.2027C34.1835 23.9357 34.3946 23.7277 34.6585 23.7277C34.9224 23.7277 35.1366 23.9357 35.1366 24.2027C35.1366 24.4697 34.9162 24.6808 34.6585 24.6808C34.4009 24.6808 34.1835 24.4635 34.1835 24.2027ZM21.7314 24.0319H19.3937V21.123H21.7314V24.0319ZM19.3937 19.9526H21.7314V13.6257L19.3937 15.9571V19.9526ZM24.4075 32.4389L22.0667 34.7704V28.4403H24.4075V32.4389ZM22.0667 27.273H24.4075V24.3641H22.0667V27.273ZM20.5579 33.6031V24.3641H21.7314V34.7704L20.5579 33.6031ZM19.3937 32.4358V24.3641H18.2233V31.2685L19.3937 32.4358ZM15.8856 28.9308V24.3641H17.0591V30.0981L15.8856 28.9308ZM14.7215 27.7604V24.3641H13.5511V26.5931L14.7215 27.7604ZM11.322 24.3641H12.3838V25.4258L11.322 24.3641ZM22.0667 13.6226V24.0288H23.234V14.7898L22.0667 13.6226ZM25.5717 17.1244V24.0288H24.4044V15.9571L25.5717 17.1244ZM26.7421 18.2948V24.0288H27.9094V19.4652L26.7421 18.2948ZM30.2439 21.7998V24.0288H29.0797V20.6294L30.2439 21.7998ZM31.4205 22.9671V24.0257H32.4761L31.4205 22.9671ZM33.4291 24.1903L21.8959 35.7235L10.3627 24.1903L21.8959 12.6571L33.4291 24.1903ZM33.5968 24.1903C33.5968 24.1903 32.237 21.806 28.1981 17.7671C24.215 13.7778 21.8959 12.4956 21.8959 12.4956C21.8959 12.4956 19.5148 13.8492 15.479 17.8912C11.4959 21.8774 10.1982 24.1903 10.1982 24.1903C10.1982 24.1903 11.558 26.5714 15.6 30.6104C19.5862 34.5996 21.8959 35.888 21.8959 35.888C21.8959 35.888 24.2833 34.5282 28.3254 30.4924C32.3084 26.5031 33.5968 24.1903 33.5968 24.1903Z" fill="white"/>
</svg>
