<svg width="32" height="32" viewBox="0 0 32 32" fill="none" xmlns="http://www.w3.org/2000/svg">
<rect width="32" height="32" rx="16" fill="#C8102E"/>
<path d="M13.2442 15.3554V17.471H8.22511L10.3452 15.3554H13.2442ZM18.593 17.7149V19.8327H21.4943L23.6099 17.7149H18.593ZM13.2465 14.5065V12.4474L11.1941 14.5065H13.2465ZM18.593 22.7317V20.6794H20.6431L18.593 22.7317ZM15.7052 6.56803C15.7052 6.43256 15.7888 6.3129 15.9265 6.22936C16.062 6.31516 16.15 6.43256 16.15 6.56803C16.15 6.7035 16.062 6.81865 15.9265 6.9067C15.791 6.81865 15.7052 6.70124 15.7052 6.56803ZM16.1094 7.2657C15.9942 7.20022 15.931 7.06249 15.9243 6.9067C16.0642 6.82994 16.2087 6.81639 16.3284 6.88638C16.4458 6.95412 16.5068 7.08507 16.5135 7.24763C16.3713 7.31988 16.2245 7.33795 16.1094 7.26795M15.7414 7.26795C15.8588 7.20248 15.922 7.06475 15.9265 6.90896C15.7843 6.8322 15.6375 6.81865 15.5246 6.88864C15.4072 6.95638 15.3463 7.08733 15.3395 7.24989C15.4795 7.32214 15.6262 7.3402 15.7414 7.27021M17.2586 6.68995C17.288 6.55674 17.3941 6.4574 17.5476 6.40321C17.6583 6.51384 17.7124 6.65157 17.6876 6.78027C17.6583 6.90896 17.5521 7.01056 17.4031 7.06475C17.288 6.95638 17.227 6.82091 17.2586 6.6877M17.507 7.45761C17.4076 7.36504 17.376 7.2228 17.4031 7.06475C17.5567 7.01959 17.7034 7.03766 17.8028 7.12797C17.8998 7.22054 17.936 7.36278 17.9044 7.51857C17.7531 7.56373 17.6063 7.54341 17.507 7.45761ZM17.1457 7.37859C17.2767 7.33795 17.3647 7.2228 17.4031 7.06475C17.2812 6.96315 17.139 6.92025 17.0148 6.95638C16.8816 7.00153 16.7958 7.11668 16.7574 7.27473C16.8816 7.37407 17.0216 7.42149 17.148 7.37859M18.7601 7.11668C18.8188 6.99476 18.9452 6.92025 19.0987 6.89993C19.1913 7.03088 19.2207 7.17764 19.1665 7.29956C19.11 7.42149 18.9836 7.49825 18.8255 7.51857C18.7352 7.38762 18.7036 7.24312 18.7601 7.11668ZM18.5117 7.7737C18.6472 7.76016 18.7578 7.66307 18.8278 7.51857C18.7307 7.39213 18.5998 7.31763 18.4643 7.33343C18.3311 7.34924 18.2227 7.44632 18.155 7.58856C18.2521 7.71726 18.383 7.78274 18.5117 7.77596M14.5651 6.68995C14.5402 6.55674 14.4341 6.4574 14.2828 6.40321C14.1654 6.51384 14.109 6.65157 14.1361 6.78027C14.1654 6.90896 14.2715 7.01056 14.4228 7.06475C14.538 6.95638 14.5944 6.82091 14.5651 6.6877M14.3167 7.45761C14.416 7.36504 14.4499 7.2228 14.4206 7.06475C14.2693 7.01959 14.1203 7.03766 14.0232 7.12797C13.9216 7.22054 13.89 7.36278 13.9193 7.51857C14.0706 7.56373 14.2173 7.54341 14.3167 7.45761ZM14.6779 7.37859C14.547 7.33795 14.4612 7.2228 14.4206 7.06475C14.5425 6.96315 14.687 6.92025 14.8112 6.95638C14.9376 7.00153 15.0279 7.11668 15.064 7.27473C14.9421 7.37407 14.8044 7.42149 14.6757 7.37859M13.0613 7.11668C13.0094 6.99476 12.8807 6.92025 12.7204 6.89993C12.6324 7.03088 12.603 7.17764 12.6595 7.29956C12.7136 7.42149 12.8378 7.49825 12.9959 7.51857C13.0862 7.38762 13.1155 7.24312 13.0613 7.11668ZM13.312 7.7737C13.1765 7.76016 13.0659 7.66307 12.9959 7.51857C13.093 7.39213 13.2217 7.31763 13.3571 7.33343C13.4926 7.34924 13.6055 7.44632 13.6755 7.58856C13.5761 7.71726 13.4474 7.78274 13.3142 7.77596M15.563 3.7119C15.563 3.51095 15.7233 3.34839 15.9243 3.34839C16.1252 3.34839 16.2855 3.51095 16.2855 3.7119C16.2855 3.91284 16.1229 4.07089 15.9243 4.07089C15.7256 4.07089 15.563 3.91058 15.563 3.7119ZM13.3097 8.21398L13.6077 8.66103C14.2806 8.34945 15.0844 8.14173 15.9175 8.14173C16.7506 8.14173 17.5589 8.34945 18.234 8.66103L18.532 8.21398C17.7712 7.84821 16.8793 7.63146 15.9265 7.63146C14.9737 7.63146 14.0774 7.84144 13.3097 8.21398ZM13.7884 5.39623C13.6845 5.36462 13.5784 5.34881 13.47 5.34881C12.9914 5.34881 12.612 5.64007 12.612 5.99003C12.612 6.15711 12.6978 6.31064 12.8356 6.42579L12.4585 6.80059C12.2214 6.58835 12.0792 6.30387 12.0792 5.99003C12.0792 5.33752 12.7001 4.81371 13.4723 4.81371C13.6687 4.81371 13.8606 4.84758 14.0345 4.91531C14.2851 4.62405 14.696 4.43666 15.1543 4.43666C15.4366 4.43666 15.703 4.50665 15.922 4.63083C16.1455 4.50665 16.4119 4.43666 16.6919 4.43666C17.1525 4.43666 17.5612 4.62405 17.8118 4.91531C17.9856 4.84758 18.1776 4.81371 18.3785 4.81371C19.1462 4.81371 19.7693 5.33978 19.7693 5.99003C19.7693 6.30387 19.6203 6.58835 19.3877 6.80059L19.0129 6.42579C19.1484 6.31064 19.2342 6.15485 19.2342 5.99003C19.2342 5.64007 18.8504 5.34881 18.3785 5.34881C18.2656 5.34881 18.1618 5.36687 18.0579 5.39623C18.0737 5.46848 18.0805 5.54073 18.0805 5.61523C18.0805 5.84779 18.0037 6.0668 17.8637 6.25194L17.4799 5.86585C17.5273 5.78683 17.5454 5.70329 17.5454 5.61523C17.5454 5.2585 17.1638 4.97176 16.6919 4.97176C16.5113 4.97176 16.3397 5.01691 16.202 5.08916V5.86134H15.6669V5.10271C15.5269 5.01917 15.3485 4.97176 15.1543 4.97176C14.6847 4.97176 14.3009 5.25624 14.3009 5.61523C14.3009 5.70329 14.3257 5.78683 14.3664 5.86585L13.9825 6.25194C13.8426 6.0668 13.768 5.84779 13.768 5.61523C13.768 5.54073 13.7748 5.46848 13.7929 5.39623M15.5811 26.8816C15.5811 26.6919 15.7369 26.5384 15.9265 26.5384C16.1162 26.5384 16.272 26.6919 16.272 26.8816C16.272 27.0712 16.1184 27.227 15.9265 27.227C15.7346 27.227 15.5811 27.0758 15.5811 26.8816ZM6.29468 17.602C6.29468 17.4078 6.45272 17.2565 6.64238 17.2565C6.83204 17.2565 6.99008 17.4078 6.99008 17.602C6.99008 17.7961 6.8343 17.9497 6.64238 17.9497C6.45047 17.9497 6.29468 17.7916 6.29468 17.602ZM24.8607 17.602C24.8607 17.4078 25.0142 17.2565 25.2061 17.2565C25.398 17.2565 25.5538 17.4078 25.5538 17.602C25.5538 17.7961 25.3935 17.9497 25.2061 17.9497C25.0187 17.9497 24.8607 17.7916 24.8607 17.602ZM15.8046 17.4778H14.1045V15.3622H15.8046V17.4778ZM14.1045 14.511H15.8046V9.9096L14.1045 11.6052V14.511ZM17.7508 23.5919L16.0484 25.2876V20.6839H17.7508V23.5919ZM16.0484 19.8349H17.7508V17.7194H16.0484V19.8349ZM14.9511 24.4386V17.7194H15.8046V25.2876L14.9511 24.4386ZM14.1045 23.5897V17.7194H13.2533V22.7408L14.1045 23.5897ZM11.5531 21.0406V17.7194H12.4066V21.8896L11.5531 21.0406ZM10.7064 20.1894V17.7194H9.85525V19.3405L10.7064 20.1894ZM8.23414 17.7194H9.00631V18.4915L8.23414 17.7194ZM16.0484 9.90734V17.4755H16.8974V10.7563L16.0484 9.90734ZM18.5975 12.4542V17.4755H17.7486V11.6052L18.5975 12.4542ZM19.4487 13.3053V17.4755H20.2976V14.1565L19.4487 13.3053ZM21.9955 15.8544V17.4755H21.1488V15.0032L21.9955 15.8544ZM22.8512 16.7034V17.4733H23.6189L22.8512 16.7034ZM24.312 17.5929L15.9243 25.9807L7.53648 17.5929L15.9243 9.20516L24.312 17.5929ZM24.434 17.5929C24.434 17.5929 23.445 15.8589 20.5076 12.9215C17.6108 10.0202 15.9243 9.08775 15.9243 9.08775C15.9243 9.08775 14.1925 10.0722 11.2574 13.0118C8.36058 15.9109 7.41681 17.5929 7.41681 17.5929C7.41681 17.5929 8.40573 19.3247 11.3454 22.2621C14.2444 25.1634 15.9243 26.1004 15.9243 26.1004C15.9243 26.1004 17.6605 25.1115 20.6002 22.1763C23.497 19.275 24.434 17.5929 24.434 17.5929Z" fill="white"/>
</svg>
