<svg width="234" height="48" viewBox="0 0 234 48" fill="none" xmlns="http://www.w3.org/2000/svg">
<path fill-rule="evenodd" clip-rule="evenodd" d="M37.7258 20.5528C43.051 20.5528 47.1439 23.0377 47.1439 28.6368V45.8404H42.1393V42.3198H42.0465C40.2477 45.4585 37.2913 46.2925 34.6306 46.2926C29.5796 46.2926 26.7583 43.3589 26.7583 39.1137L26.7548 39.1102C26.7548 34.6387 29.918 32.631 34.8549 31.613L39.4497 30.6655C41.4978 30.2378 42.1355 29.4921 42.1355 28.1808C42.1355 25.9221 40.3618 24.7023 37.587 24.7023C34.2885 24.7023 30.7158 26.4416 28.0763 28.7003H27.941V23.8932C30.0354 22.0657 33.6758 20.5528 37.7258 20.5528ZM42.1355 32.8571C41.6582 33.6241 40.5434 34.1436 39.0866 34.437L35.6741 35.1371C32.8067 35.7238 31.8056 37.1696 31.8056 39.0218C31.8057 41.1886 33.1702 42.5424 35.7882 42.5424C39.6315 42.5424 42.1355 39.6085 42.1355 35.5896V32.8571Z" fill="#DB2828"/>
<path d="M77.3532 20.5528C80.1743 20.5528 83.6792 21.4577 85.4068 23.3982V28.0959H85.2252C83.7683 26.3356 81.1751 24.6636 77.7627 24.6636C72.7581 24.6637 70.2539 28.2763 70.2539 33.4228C70.254 38.5693 72.7582 42.1816 77.7627 42.1817C81.1751 42.1817 83.7683 40.5098 85.2252 38.7495H85.4068V43.4472C83.6792 45.3877 80.1743 46.2926 77.3532 46.2926C70.0262 46.2926 65.0678 41.1462 65.0678 33.4228C65.0678 25.703 70.0262 20.5528 77.3532 20.5528Z" fill="#DB2828"/>
<path fill-rule="evenodd" clip-rule="evenodd" d="M99.1024 20.5528C106.429 20.5528 110.522 25.5189 110.522 32.7439V34.9569H92.456C92.7731 39.7428 95.2095 42.1358 100.011 42.1358C104.243 42.1358 107.381 40.5557 108.837 38.7495H109.019V43.4472C107.292 45.3877 103.242 46.2925 100.011 46.2926C91.911 46.2926 87.2233 41.1 87.2233 33.3766H87.2267C87.2268 25.6992 91.7755 20.5528 99.1024 20.5528ZM99.1024 24.5718C94.8709 24.5719 92.6873 26.8056 92.4379 31.2557H105.792C105.564 26.8091 103.334 24.5718 99.1024 24.5718Z" fill="#DB2828"/>
<path fill-rule="evenodd" clip-rule="evenodd" d="M132.703 20.5528C140.03 20.5528 145.149 25.6993 145.149 33.3766C145.149 41.054 140.03 46.2925 132.703 46.2926C125.376 46.2926 120.258 41.1 120.258 33.3766C120.258 25.6992 125.376 20.5528 132.703 20.5528ZM132.703 24.5718C128.105 24.5718 125.444 27.8236 125.444 33.3766C125.444 38.9297 128.105 42.2739 132.703 42.2739C137.302 42.2738 139.963 39.0215 139.963 33.3766C139.963 27.8237 137.302 24.5719 132.703 24.5718Z" fill="#DB2828"/>
<path fill-rule="evenodd" clip-rule="evenodd" d="M183.28 20.5528C188.605 20.5528 192.698 23.0378 192.698 28.6368V45.8404H187.693V42.3198H187.604C185.806 45.4585 182.849 46.2925 180.189 46.2926C175.138 46.2926 172.316 43.3589 172.316 39.1137L172.313 39.1102C172.313 34.6387 175.476 32.631 180.413 31.613L185.008 30.6655C187.056 30.2378 187.693 29.4921 187.693 28.1808C187.693 25.9221 185.92 24.7023 183.145 24.7023C179.846 24.7023 176.274 26.4416 173.634 28.7003H173.499V23.8932C175.593 22.0657 179.234 20.5528 183.28 20.5528ZM187.69 32.8571C187.213 33.6241 186.098 34.1436 184.641 34.437L181.229 35.1371C178.361 35.7238 177.36 37.1696 177.36 39.0218C177.36 41.1885 178.724 42.5424 181.342 42.5424C185.186 42.5424 187.69 39.6086 187.69 35.5896V32.8571Z" fill="#DB2828"/>
<path d="M61.7938 20.5562C62.727 20.5562 63.6816 20.7152 64.6149 21.0757V25.8407H64.4333C63.5 25.413 62.4775 25.1866 61.2949 25.1866C57.676 25.1867 55.1505 27.3077 55.1505 32.8854V45.8438H50.1459V21.0088L50.1424 21.005H55.147V25.003H55.2395C56.8994 21.5707 59.3787 20.5562 61.7938 20.5562Z" fill="#DB2828"/>
<path fill-rule="evenodd" clip-rule="evenodd" d="M12.8768 12.1543C20.7025 12.1543 24.571 15.8126 24.571 21.3657C24.571 24.7767 22.9786 27.7565 19.1104 28.9513V29.0645C23.228 30.1249 25.0267 33.0622 25.0267 36.4025C25.0267 42.0934 21.2938 45.8403 13.6498 45.8404H0V12.1543H12.8768ZM5.18615 41.5914H13.5607V41.5949C18.0202 41.5948 19.8405 39.3364 19.8405 36.3107C19.8405 33.285 17.885 31.0722 13.5145 31.0721H5.18615V41.5914ZM5.18998 26.8304H13.5179C17.7959 26.8304 19.477 24.4832 19.477 21.5459C19.477 18.6085 17.8848 16.3994 13.1972 16.3994H5.18998V26.8304Z" fill="#DB2828"/>
<path d="M117.803 45.8404H112.799V12.1543H117.803V45.8404Z" fill="#DB2828"/>
<path d="M160.441 20.5528C165.855 20.5528 170.041 23.8719 170.041 30.9378V45.8404H165.036V31.5032C165.036 27.1237 162.692 24.5718 159.005 24.5718C155.319 24.5718 152.611 27.3713 152.611 31.7756V45.8404H147.607V21.005H152.611V24.5256H152.704C154.456 21.5918 157.413 20.5528 160.441 20.5528Z" fill="#DB2828"/>
<path d="M217.034 8.01119C216.785 8.09249 216.603 8.32932 216.528 8.6333C216.771 8.83479 217.048 8.92315 217.308 8.84185C217.558 8.76409 217.732 8.52726 217.811 8.22327C217.757 8.52726 217.821 8.81358 218.021 8.99385C218.217 9.17059 218.509 9.20594 218.812 9.1211C218.869 8.80651 218.804 8.52373 218.605 8.34346C218.406 8.17026 218.121 8.13844 217.814 8.22681C218.117 8.1137 218.324 7.91929 218.377 7.66125C218.438 7.40675 218.32 7.13811 218.092 6.91542C217.793 7.02146 217.576 7.2194 217.519 7.47744C217.465 7.73901 217.583 8.00412 217.807 8.22327C217.568 8.01826 217.284 7.93342 217.031 8.01472M221.316 8.68279C221.426 8.43889 221.366 8.15612 221.187 7.89454C220.874 7.9405 220.625 8.08896 220.514 8.33285C220.404 8.57322 220.461 8.856 220.642 9.1211C220.956 9.07868 221.209 8.92669 221.319 8.68279M220.639 9.11756C220.447 8.8666 220.187 8.72167 219.919 8.74995C219.656 8.77823 219.435 8.96911 219.296 9.25189C219.492 9.50285 219.748 9.63717 220.012 9.61243C220.279 9.58769 220.5 9.39681 220.639 9.11403M214.854 45.4724L198.255 28.9935L214.854 12.518L231.46 28.9935L214.854 45.476V45.4724ZM224.005 19.743C218.238 14.0203 214.886 12.1716 214.876 12.1681L214.854 12.1574L214.829 12.1681C214.829 12.1681 211.378 14.1228 205.536 19.9127C199.769 25.639 197.895 28.9652 197.895 28.9652L197.881 28.9899L197.895 29.0147C197.895 29.0147 199.869 32.4434 205.707 38.2404C211.474 43.9596 214.826 45.8153 214.826 45.8153L214.854 45.833L214.883 45.8153C214.883 45.8153 218.338 43.8606 224.172 38.0671C229.939 32.3373 231.813 29.0147 231.817 29.0076L231.831 28.9864L231.817 28.9652C231.817 28.9652 229.843 25.5365 224.005 19.7395M196.403 28.3183C196.022 28.3183 195.712 28.6223 195.712 28.997C195.712 29.3717 196.022 29.6827 196.403 29.6827C196.784 29.6827 197.087 29.3787 197.087 28.997C197.087 28.6152 196.781 28.3183 196.403 28.3183ZM214.858 46.6318C214.477 46.6318 214.17 46.9394 214.17 47.3176C214.17 47.6958 214.477 47.9998 214.858 47.9998C215.239 47.9998 215.552 47.6958 215.552 47.3176C215.552 46.9394 215.242 46.6318 214.858 46.6318ZM233.313 28.3183C232.928 28.3183 232.622 28.6223 232.622 28.997C232.622 29.3717 232.928 29.6827 233.313 29.6827C233.697 29.6827 234 29.3787 234 28.997C234 28.6152 233.69 28.3183 233.313 28.3183ZM208.72 6.95077C208.443 6.72454 208.275 6.42409 208.275 6.09889C208.275 5.39548 209.037 4.82992 209.978 4.82992C210.202 4.82992 210.412 4.86173 210.612 4.92182C210.58 5.06321 210.566 5.20813 210.566 5.35659C210.566 5.81964 210.726 6.25089 211.004 6.61497L211.766 5.85146C211.68 5.703 211.631 5.53333 211.631 5.35659C211.631 4.65318 212.393 4.08762 213.33 4.08762C213.711 4.08762 214.063 4.17953 214.352 4.33859V5.84439H215.413V4.31384C215.688 4.16538 216.026 4.08409 216.393 4.08409C217.33 4.08409 218.092 4.64964 218.092 5.35306C218.092 5.5298 218.042 5.69946 217.953 5.84792L218.715 6.61143C218.99 6.24735 219.15 5.81611 219.15 5.35306C219.15 5.2046 219.136 5.05968 219.104 4.91829C219.296 4.86173 219.513 4.82638 219.738 4.82638C220.678 4.82638 221.44 5.39548 221.44 6.09536C221.44 6.42056 221.273 6.721 220.995 6.94723L221.743 7.69306C222.213 7.27596 222.498 6.71394 222.498 6.09536C222.498 4.81225 221.262 3.76949 219.734 3.76949C219.332 3.76949 218.958 3.84019 218.612 3.97097C218.117 3.39834 217.301 3.02366 216.389 3.02366C215.823 3.02366 215.296 3.16858 214.861 3.41248C214.423 3.16858 213.896 3.02366 213.333 3.02366C212.421 3.02366 211.613 3.39834 211.107 3.97097C210.765 3.84372 210.387 3.76949 209.985 3.76949C208.46 3.76949 207.224 4.80871 207.224 6.09536C207.224 6.71394 207.509 7.27596 207.976 7.69306L208.728 6.94723L208.72 6.95077ZM209.675 9.61596C209.939 9.63717 210.199 9.50639 210.391 9.25542C210.256 8.97264 210.031 8.78176 209.764 8.75348C209.5 8.72521 209.244 8.87013 209.052 9.1211C209.187 9.40388 209.408 9.59476 209.671 9.6195M214.074 7.86627C213.843 8.00412 213.721 8.26569 213.707 8.58029C213.989 8.72874 214.281 8.75349 214.512 8.6227C214.744 8.49192 214.865 8.22681 214.876 7.91222C214.886 8.22328 215.011 8.49192 215.239 8.6227C215.47 8.75349 215.763 8.72874 216.04 8.58029C216.03 8.26569 215.909 8.00412 215.673 7.86627C215.446 7.73548 215.153 7.75669 214.876 7.90868C215.143 7.74255 215.314 7.50572 215.314 7.24061C215.314 6.97551 215.143 6.74221 214.876 6.57255C214.605 6.73868 214.434 6.97551 214.434 7.24061C214.434 7.50572 214.601 7.74255 214.872 7.90868C214.591 7.75669 214.299 7.73194 214.071 7.86627M214.865 2.31317C215.264 2.31317 215.581 1.99505 215.581 1.60269C215.581 1.21034 215.26 0.888672 214.865 0.888672C214.47 0.888672 214.142 1.2068 214.142 1.60269C214.142 1.99858 214.466 2.31317 214.865 2.31317ZM209.18 8.32932C209.069 8.08542 208.82 7.93696 208.507 7.89101C208.325 8.15258 208.264 8.43536 208.375 8.67926C208.485 8.91962 208.738 9.07515 209.052 9.11756C209.226 8.85246 209.287 8.56968 209.176 8.32932M211.078 8.33992C210.879 8.52019 210.822 8.80651 210.872 9.11756C211.175 9.2024 211.47 9.16706 211.666 8.99032C211.866 8.81005 211.93 8.52373 211.869 8.21974C211.951 8.52019 212.122 8.76056 212.382 8.83832C212.632 8.92315 212.916 8.83479 213.155 8.62977C213.084 8.32578 212.909 8.08895 212.649 8.00765C212.4 7.92635 212.122 8.00765 211.883 8.21267C212.108 7.99705 212.222 7.72841 212.165 7.47038C212.111 7.21234 211.898 7.01439 211.595 6.90835C211.367 7.13104 211.257 7.39614 211.306 7.65418C211.36 7.91221 211.581 8.11016 211.869 8.21974C211.566 8.13137 211.278 8.16318 211.075 8.33639M214.854 10.3441C216.535 10.3441 218.117 10.7542 219.456 11.3657L220.048 10.4749C218.534 9.76089 216.763 9.32965 214.865 9.32965C212.966 9.32965 211.196 9.74675 209.664 10.4784L210.259 11.3657C211.602 10.7506 213.191 10.3441 214.851 10.3441M215.104 29.2409H218.487V33.4154H215.104V29.2409ZM214.619 28.7566H211.242V24.5892H214.619V28.7566ZM214.619 22.9102H211.242V17.1733L209.55 18.8487V22.9102H205.468L203.776 24.5892H209.55V28.7566H199.573L199.331 28.997L199.57 29.2374H201.098V30.7573L202.786 32.4328V29.2374H204.474V34.1082L206.166 35.7872V29.2338H207.858V37.4592L209.55 39.1346V29.2338H211.239V40.8101L212.927 42.4891V29.2338H214.616V44.1646L214.858 44.4014L215.1 44.1646V35.0803H218.484V40.8172L220.172 39.1346V35.0803H224.254L225.943 33.4083H220.172V29.2338H230.142L230.392 28.9864L230.153 28.7496H228.625V27.2331L226.933 25.5577V28.7531H225.245V23.8787L223.553 22.2032V28.7531H221.861V20.5277L220.172 18.8487V28.7496H218.484V17.1733L216.792 15.4978V28.7496H215.1V13.8188L214.865 13.5784L214.619 13.8223V22.9031V22.9102Z" fill="#DB2828"/>
</svg>