<svg width="180" height="38" viewBox="0 0 180 38" fill="none" xmlns="http://www.w3.org/2000/svg">
<path fill-rule="evenodd" clip-rule="evenodd" d="M29.0198 16.1552C33.1161 16.1552 36.2645 18.0707 36.2645 22.3866V35.6477H32.4149V32.9339H32.3434C30.9597 35.3534 28.6856 35.9963 26.6389 35.9963C22.7536 35.9963 20.5833 33.7349 20.5833 30.4626L20.5806 30.4599C20.5806 27.0132 23.0138 25.4655 26.8115 24.6808L30.3459 23.9504C31.9214 23.6207 32.4119 23.0459 32.4119 22.0351C32.4119 20.2941 31.0475 19.3538 28.9131 19.3538C26.3758 19.3538 23.6275 20.6945 21.5972 22.4356H21.4931V18.7301C23.1042 17.3215 25.9044 16.1552 29.0198 16.1552ZM32.4119 25.6398C32.0448 26.231 31.1872 26.6315 30.0666 26.8577L27.4416 27.3973C25.2359 27.8496 24.4659 28.964 24.4659 30.3918C24.4659 32.062 25.5155 33.1056 27.5294 33.1056C30.4858 33.1055 32.4119 30.844 32.4119 27.7461V25.6398Z" fill="black"/>
<path d="M59.5025 16.1552C61.6726 16.1552 64.3686 16.8527 65.6975 18.3486V21.9697H65.5578C64.4372 20.6128 62.4424 19.324 59.8174 19.324C55.9678 19.3241 54.0415 22.1088 54.0415 26.0759C54.0415 30.043 55.9678 32.8275 59.8174 32.8275C62.4424 32.8275 64.4372 31.5387 65.5578 30.1818H65.6975V33.803C64.3686 35.2988 61.6726 35.9963 59.5025 35.9963C53.8663 35.9963 50.0522 32.0293 50.0521 26.0759C50.0521 20.1252 53.8663 16.1552 59.5025 16.1552Z" fill="black"/>
<path fill-rule="evenodd" clip-rule="evenodd" d="M76.2327 16.1552C81.8688 16.1552 85.0173 19.9833 85.0173 25.5525V27.2584H71.12C71.3639 30.9476 73.2381 32.7921 76.9316 32.7921C80.1867 32.7921 82.6005 31.5741 83.7211 30.1818H83.8611V33.803C82.5322 35.2988 79.4168 35.9963 76.9316 35.9963C70.7008 35.9963 67.0948 31.9937 67.0948 26.0402H67.0975C67.0975 20.1223 70.5965 16.1553 76.2327 16.1552ZM76.2327 19.2532C72.9776 19.2533 71.2979 20.9751 71.1061 24.4054H81.3785C81.2031 20.9778 79.4878 19.2532 76.2327 19.2532Z" fill="black"/>
<path fill-rule="evenodd" clip-rule="evenodd" d="M102.08 16.1552C107.716 16.1553 111.653 20.1223 111.653 26.0402C111.653 31.9583 107.716 35.9963 102.08 35.9963C96.4433 35.9963 92.5058 31.9937 92.5058 26.0402C92.5058 20.1223 96.4433 16.1552 102.08 16.1552ZM102.08 19.2532C98.5422 19.2532 96.4952 21.7598 96.4951 26.0402C96.4951 30.3207 98.5422 32.8986 102.08 32.8986C105.617 32.8985 107.664 30.3915 107.664 26.0402C107.664 21.7599 105.617 19.2533 102.08 19.2532Z" fill="black"/>
<path fill-rule="evenodd" clip-rule="evenodd" d="M140.985 16.1552C145.081 16.1552 148.23 18.0707 148.23 22.3866V35.6477H144.38V32.9339H144.311C142.927 35.3534 140.653 35.9963 138.607 35.9963C134.721 35.9963 132.551 33.7349 132.551 30.4626L132.548 30.4599C132.548 27.0132 134.981 25.4655 138.779 24.6808L142.314 23.9504C143.889 23.6207 144.38 23.0459 144.38 22.0351C144.38 20.2941 143.015 19.3538 140.881 19.3538C138.343 19.3538 135.595 20.6945 133.565 22.4356H133.461V18.7301C135.072 17.3214 137.872 16.1552 140.985 16.1552ZM144.377 25.6398C144.01 26.231 143.152 26.6315 142.032 26.8577L139.407 27.3973C137.201 27.8496 136.431 28.964 136.431 30.3918C136.431 32.062 137.48 33.1055 139.494 33.1056C142.451 33.1056 144.377 30.844 144.377 27.7461V25.6398Z" fill="black"/>
<path d="M47.5337 16.1579C48.2515 16.1579 48.9859 16.2804 49.7037 16.5583V20.2314H49.5641C48.8462 19.9017 48.0596 19.7271 47.15 19.7271C44.3662 19.7272 42.4234 21.3621 42.4234 25.6616V35.6504H38.5738V16.5067L38.5711 16.5038H42.4207V19.5856H42.4919C43.7688 16.9399 45.6759 16.1579 47.5337 16.1579Z" fill="black"/>
<path fill-rule="evenodd" clip-rule="evenodd" d="M9.90527 9.6814C15.925 9.68143 18.9008 12.5014 18.9008 16.7818C18.9008 19.4111 17.6759 21.7081 14.7003 22.629V22.7163C17.8677 23.5338 19.2513 25.7979 19.2513 28.3727C19.2513 32.7595 16.3798 35.6477 10.4998 35.6477H0V9.6814H9.90527ZM3.98935 32.3725H10.4313V32.3752C13.8617 32.3751 15.2619 30.6342 15.2619 28.302C15.2619 25.9696 13.7577 24.2639 10.3957 24.2639H3.98935V32.3725ZM3.99229 20.9942H10.3984C13.6891 20.9942 14.9823 19.185 14.9823 16.9207C14.9823 14.6565 13.7575 12.9537 10.1517 12.9537H3.99229V20.9942Z" fill="black"/>
<path d="M90.618 35.6477H86.7683V9.6814H90.618V35.6477Z" fill="black"/>
<path d="M123.416 16.1552C127.581 16.1553 130.8 18.7137 130.8 24.1604V35.6477H126.951V24.5962C126.95 21.2203 125.148 19.2532 122.312 19.2532C119.476 19.2532 117.393 21.4112 117.393 24.8061V35.6477H113.544V16.5038H117.393V19.2176H117.465C118.813 16.9561 121.087 16.1552 123.416 16.1552Z" fill="black"/>
<path d="M166.949 6.48796C166.757 6.55062 166.617 6.73318 166.56 6.9675C166.746 7.12281 166.96 7.19093 167.16 7.12826C167.351 7.06832 167.486 6.88576 167.546 6.65144C167.505 6.88576 167.554 7.10646 167.708 7.24542C167.858 7.38166 168.083 7.40891 168.316 7.34351C168.36 7.10101 168.31 6.88304 168.157 6.74408C168.004 6.61057 167.784 6.58605 167.549 6.65416C167.782 6.56697 167.941 6.41711 167.982 6.21821C168.028 6.02203 167.938 5.81495 167.762 5.6433C167.532 5.72504 167.365 5.87762 167.321 6.07652C167.28 6.27815 167.371 6.4825 167.543 6.65144C167.36 6.4934 167.14 6.42801 166.946 6.49068M170.242 7.00565C170.327 6.81764 170.28 6.59967 170.143 6.39804C169.902 6.43346 169.711 6.5479 169.626 6.7359C169.541 6.92118 169.585 7.13916 169.724 7.34351C169.965 7.31082 170.16 7.19365 170.245 7.00565M169.722 7.34078C169.574 7.14733 169.374 7.03562 169.168 7.05742C168.965 7.07922 168.795 7.22635 168.689 7.44432C168.839 7.63778 169.037 7.74132 169.239 7.72225C169.445 7.70317 169.615 7.55604 169.722 7.33806M165.272 35.3643L152.503 22.6618L165.272 9.96195L178.046 22.6618L165.272 35.3671V35.3643ZM172.311 15.5312C167.875 11.1199 165.296 9.69493 165.288 9.6922L165.272 9.68403L165.253 9.6922C165.253 9.6922 162.597 11.199 158.104 15.662C153.668 20.076 152.227 22.64 152.227 22.64L152.216 22.6591L152.227 22.6781C152.227 22.6781 153.744 25.3211 158.235 29.7896C162.671 34.1982 165.25 35.6286 165.25 35.6286L165.272 35.6423L165.294 35.6286C165.294 35.6286 167.951 34.1219 172.44 29.6561C176.876 25.2393 178.317 22.6781 178.32 22.6727L178.331 22.6563L178.32 22.64C178.32 22.64 176.802 19.997 172.311 15.5285M151.078 22.1414C150.785 22.1414 150.547 22.3757 150.547 22.6645C150.547 22.9533 150.785 23.1931 151.078 23.1931C151.372 23.1931 151.605 22.9588 151.605 22.6645C151.605 22.3702 151.369 22.1414 151.078 22.1414ZM165.274 36.258C164.981 36.258 164.746 36.4951 164.746 36.7866C164.746 37.0782 164.981 37.3125 165.274 37.3125C165.568 37.3125 165.809 37.0782 165.809 36.7866C165.809 36.4951 165.57 36.258 165.274 36.258ZM179.47 22.1414C179.175 22.1414 178.939 22.3757 178.939 22.6645C178.939 22.9533 179.175 23.1931 179.47 23.1931C179.766 23.1931 179.999 22.9588 179.999 22.6645C179.999 22.3702 179.761 22.1414 179.47 22.1414ZM160.553 5.67055C160.34 5.49616 160.211 5.26456 160.211 5.01389C160.211 4.47168 160.797 4.03572 161.521 4.03572C161.693 4.03572 161.855 4.06025 162.008 4.10657C161.984 4.21555 161.973 4.32727 161.973 4.4417C161.973 4.79864 162.096 5.13106 162.31 5.4117L162.896 4.82316C162.83 4.70873 162.792 4.57794 162.792 4.4417C162.792 3.89949 163.378 3.46354 164.099 3.46354C164.392 3.46354 164.663 3.53438 164.885 3.65699V4.81771H165.702V3.63792C165.913 3.52348 166.173 3.46081 166.455 3.46081C167.176 3.46081 167.762 3.89676 167.762 4.43898C167.762 4.57521 167.724 4.706 167.656 4.82044L168.242 5.40897C168.453 5.12833 168.576 4.79592 168.576 4.43898C168.576 4.32454 168.565 4.21283 168.541 4.10384C168.689 4.06025 168.856 4.033 169.028 4.033C169.752 4.033 170.338 4.47168 170.338 5.01117C170.338 5.26184 170.209 5.49344 169.996 5.66782L170.571 6.24273C170.933 5.92122 171.152 5.48799 171.152 5.01117C171.152 4.0221 170.201 3.21831 169.026 3.21831C168.716 3.21831 168.428 3.27281 168.162 3.37362C167.782 2.93222 167.154 2.6434 166.453 2.6434C166.017 2.6434 165.611 2.75511 165.277 2.94312C164.94 2.75511 164.535 2.6434 164.102 2.6434C163.4 2.6434 162.778 2.93222 162.389 3.37362C162.126 3.27553 161.836 3.21831 161.526 3.21831C160.353 3.21831 159.403 4.01938 159.403 5.01117C159.403 5.48799 159.622 5.92122 159.981 6.24273L160.559 5.66782L160.553 5.67055ZM161.288 7.72497C161.49 7.74132 161.691 7.64051 161.838 7.44705C161.734 7.22908 161.562 7.08194 161.356 7.06014C161.153 7.03834 160.956 7.15006 160.808 7.34351C160.912 7.56149 161.082 7.70862 161.285 7.7277M164.672 6.37624C164.494 6.48251 164.4 6.68413 164.389 6.92663C164.606 7.04107 164.831 7.06014 165.009 6.95933C165.187 6.85851 165.28 6.65416 165.288 6.41166C165.296 6.65144 165.392 6.85851 165.568 6.95933C165.746 7.06014 165.97 7.04107 166.184 6.92663C166.176 6.68413 166.083 6.48251 165.902 6.37624C165.727 6.27543 165.502 6.29178 165.288 6.40894C165.494 6.28088 165.625 6.09832 165.625 5.89397C165.625 5.68962 165.494 5.50979 165.288 5.379C165.08 5.50706 164.948 5.68962 164.948 5.89397C164.948 6.09832 165.077 6.28088 165.285 6.40894C165.069 6.29178 164.844 6.2727 164.669 6.37624M165.28 2.09573C165.587 2.09573 165.831 1.85051 165.831 1.54807C165.831 1.24563 165.584 0.997681 165.28 0.997681C164.976 0.997681 164.724 1.2429 164.724 1.54807C164.724 1.85324 164.973 2.09573 165.28 2.09573ZM160.907 6.73318C160.822 6.54517 160.63 6.43074 160.389 6.39532C160.249 6.59695 160.203 6.81492 160.288 7.00292C160.373 7.1882 160.567 7.30809 160.808 7.34078C160.942 7.13643 160.989 6.91846 160.904 6.73318M162.367 6.74135C162.214 6.88031 162.17 7.10101 162.208 7.34078C162.441 7.40618 162.669 7.37893 162.819 7.2427C162.973 7.10374 163.022 6.88304 162.976 6.64871C163.039 6.88031 163.17 7.06559 163.37 7.12554C163.562 7.19093 163.781 7.12281 163.965 6.96478C163.91 6.73045 163.776 6.5479 163.576 6.48523C163.384 6.42256 163.17 6.48523 162.987 6.64326C163.159 6.47706 163.247 6.26998 163.203 6.07108C163.162 5.87217 162.998 5.71959 162.765 5.63785C162.589 5.8095 162.504 6.01386 162.543 6.21276C162.584 6.41166 162.754 6.56425 162.976 6.64871C162.743 6.5806 162.521 6.60512 162.365 6.73863M165.272 8.28626C166.565 8.28626 167.782 8.60232 168.812 9.0737L169.267 8.38707C168.102 7.83668 166.74 7.50427 165.28 7.50427C163.82 7.50427 162.458 7.82578 161.28 8.3898L161.737 9.0737C162.77 8.5996 163.992 8.28626 165.269 8.28626M165.464 22.8525H168.067V26.0704H165.464V22.8525ZM165.091 22.4792H162.493V19.2668H165.091V22.4792ZM165.091 17.9726H162.493V13.5504L161.192 14.8419V17.9726H158.052L156.75 19.2668H161.192V22.4792H153.517L153.331 22.6645L153.514 22.8498H154.69V24.0214L155.989 25.3129V22.8498H157.287V26.6044L158.589 27.8987V22.8471H159.89V29.1874L161.192 30.479V22.8471H162.491V31.7705L163.789 33.0647V22.8471H165.088V34.3562L165.274 34.5388L165.461 34.3562V27.3537H168.064V31.7759L169.363 30.479V27.3537H172.503L173.801 26.0649H169.363V22.8471H177.032L177.224 22.6563L177.04 22.4738H175.865V21.3049L174.563 20.0134V22.4765H173.264V18.7191L171.963 17.4276V22.4765H170.661V16.1361L169.363 14.8419V22.4738H168.064V13.5504L166.762 12.2589V22.4738H165.461V10.9646L165.28 10.7794L165.091 10.9674V17.9671V17.9726Z" fill="black"/>
</svg>
